# Rhino

v 0 0 -10
v 3.0901699437494741 0 -9.5105651629515346
v 2.5 1.8163563200134021 -9.5105651629515346
v 0.95491502812526285 2.9389262614623655 -9.5105651629515346
v -0.95491502812526252 2.9389262614623659 -9.5105651629515346
v -2.4999999999999996 1.8163563200134025 -9.5105651629515346
v -3.0901699437494741 0 -9.5105651629515346
v -2.5 -1.8163563200134019 -9.5105651629515346
v -0.9549150281252633 -2.9389262614623655 -9.5105651629515346
v 0.95491502812526219 -2.9389262614623659 -9.5105651629515346
v 2.4999999999999996 -1.8163563200134027 -9.5105651629515346
v 5.8778525229247318 0 -8.0901699437494745
v 4.7552825814757682 3.4549150281252632 -8.0901699437494745
v 1.8163563200134025 5.5901699437494745 -8.0901699437494745
v -1.8163563200134019 5.5901699437494754 -8.0901699437494745
v -4.7552825814757682 3.4549150281252641 -8.0901699437494745
v -5.8778525229247318 0 -8.0901699437494745
v -4.7552825814757682 -3.4549150281252627 -8.0901699437494745
v -1.8163563200134032 -5.5901699437494745 -8.0901699437494745
v 1.8163563200134012 -5.5901699437494754 -8.0901699437494745
v 4.7552825814757682 -3.4549150281252645 -8.0901699437494745
v 8.0901699437494745 0 -5.8778525229247318
v 6.5450849718747373 4.7552825814757682 -5.8778525229247318
v 2.5000000000000004 7.6942088429381332 -5.8778525229247318
v -2.4999999999999996 7.6942088429381341 -5.8778525229247318
v -6.5450849718747364 4.7552825814757691 -5.8778525229247318
v -8.0901699437494745 0 -5.8778525229247318
v -6.5450849718747373 -4.7552825814757673 -5.8778525229247318
v -2.5000000000000013 -7.6942088429381332 -5.8778525229247318
v 2.4999999999999987 -7.6942088429381341 -5.8778525229247318
v 6.5450849718747364 -4.75528258147577 -5.8778525229247318
v 9.5105651629515346 0 -3.0901699437494745
v 7.6942088429381332 5.5901699437494736 -3.0901699437494745
v 2.9389262614623655 9.0450849718747364 -3.0901699437494745
v -2.9389262614623646 9.0450849718747364 -3.0901699437494745
v -7.6942088429381315 5.5901699437494745 -3.0901699437494745
v -9.5105651629515346 0 -3.0901699437494745
v -7.6942088429381332 -5.5901699437494727 -3.0901699437494745
v -2.9389262614623668 -9.0450849718747364 -3.0901699437494745
v 2.9389262614623632 -9.0450849718747364 -3.0901699437494745
v 7.6942088429381315 -5.5901699437494754 -3.0901699437494745
v 10 0 0
v 8.0901699437494745 5.8778525229247318 0
v 3.0901699437494745 9.5105651629515346 0
v -3.0901699437494736 9.5105651629515364 0
v -8.0901699437494727 5.8778525229247327 0
v -10 0 0
v -8.0901699437494745 -5.87785252292473 0
v -3.0901699437494754 -9.5105651629515346 0
v 3.0901699437494723 -9.5105651629515364 0
v 8.0901699437494727 -5.8778525229247336 0
v 9.5105651629515364 0 3.0901699437494736
v 7.6942088429381341 5.5901699437494745 3.0901699437494736
v 2.9389262614623659 9.0450849718747381 3.0901699437494736
v -2.938926261462365 9.0450849718747381 3.0901699437494736
v -7.6942088429381332 5.5901699437494754 3.0901699437494736
v -9.5105651629515364 0 3.0901699437494736
v -7.6942088429381341 -5.5901699437494736 3.0901699437494736
v -2.9389262614623672 -9.0450849718747381 3.0901699437494736
v 2.9389262614623641 -9.0450849718747381 3.0901699437494736
v 7.6942088429381332 -5.5901699437494772 3.0901699437494736
v 8.0901699437494745 0 5.87785252292473
v 6.5450849718747373 4.7552825814757682 5.87785252292473
v 2.5000000000000004 7.6942088429381332 5.87785252292473
v -2.4999999999999996 7.6942088429381341 5.87785252292473
v -6.5450849718747364 4.7552825814757691 5.87785252292473
v -8.0901699437494745 0 5.87785252292473
v -6.5450849718747373 -4.7552825814757673 5.87785252292473
v -2.5000000000000013 -7.6942088429381332 5.87785252292473
v 2.4999999999999987 -7.6942088429381341 5.87785252292473
v 6.5450849718747364 -4.75528258147577 5.87785252292473
v 5.8778525229247327 0 8.0901699437494727
v 4.7552825814757691 3.4549150281252636 8.0901699437494727
v 1.8163563200134027 5.5901699437494754 8.0901699437494727
v -1.8163563200134021 5.5901699437494763 8.0901699437494727
v -4.7552825814757682 3.4549150281252645 8.0901699437494727
v -5.8778525229247327 0 8.0901699437494727
v -4.7552825814757691 -3.4549150281252632 8.0901699437494727
v -1.8163563200134034 -5.5901699437494754 8.0901699437494727
v 1.8163563200134014 -5.5901699437494763 8.0901699437494727
v 4.7552825814757682 -3.454915028125265 8.0901699437494727
v 3.090169943749475 0 9.5105651629515346
v 2.5000000000000004 1.8163563200134027 9.5105651629515346
v 0.95491502812526319 2.9389262614623664 9.5105651629515346
v -0.95491502812526285 2.9389262614623664 9.5105651629515346
v -2.5000000000000004 1.816356320013403 9.5105651629515346
v -3.090169943749475 0 9.5105651629515346
v -2.5000000000000004 -1.8163563200134023 9.5105651629515346
v -0.95491502812526352 -2.9389262614623664 9.5105651629515346
v 0.95491502812526252 -2.9389262614623664 9.5105651629515346
v 2.5000000000000004 -1.8163563200134034 9.5105651629515346
v 0 0 10
vt 0 0
vt 0 0.10000000149011612
vt 0.10000000149011612 0.10000000149011612
vt 0.20000000298023224 0.10000000149011612
vt 0.30000001192092896 0.10000000149011612
vt 0.40000000596046448 0.10000000149011612
vt 0.5 0.10000000149011612
vt 0.60000002384185791 0.10000000149011612
vt 0.69999998807907104 0.10000000149011612
vt 0.80000001192092896 0.10000000149011612
vt 0.89999997615814209 0.10000000149011612
vt 0 0.20000000298023224
vt 0.10000000149011612 0.20000000298023224
vt 0.20000000298023224 0.20000000298023224
vt 0.30000001192092896 0.20000000298023224
vt 0.40000000596046448 0.20000000298023224
vt 0.5 0.20000000298023224
vt 0.60000002384185791 0.20000000298023224
vt 0.69999998807907104 0.20000000298023224
vt 0.80000001192092896 0.20000000298023224
vt 0.89999997615814209 0.20000000298023224
vt 0 0.30000001192092896
vt 0.10000000149011612 0.30000001192092896
vt 0.20000000298023224 0.30000001192092896
vt 0.30000001192092896 0.30000001192092896
vt 0.40000000596046448 0.30000001192092896
vt 0.5 0.30000001192092896
vt 0.60000002384185791 0.30000001192092896
vt 0.69999998807907104 0.30000001192092896
vt 0.80000001192092896 0.30000001192092896
vt 0.89999997615814209 0.30000001192092896
vt 0 0.40000000596046448
vt 0.10000000149011612 0.40000000596046448
vt 0.20000000298023224 0.40000000596046448
vt 0.30000001192092896 0.40000000596046448
vt 0.40000000596046448 0.40000000596046448
vt 0.5 0.40000000596046448
vt 0.60000002384185791 0.40000000596046448
vt 0.69999998807907104 0.40000000596046448
vt 0.80000001192092896 0.40000000596046448
vt 0.89999997615814209 0.40000000596046448
vt 0 0.5
vt 0.10000000149011612 0.5
vt 0.20000000298023224 0.5
vt 0.30000001192092896 0.5
vt 0.40000000596046448 0.5
vt 0.5 0.5
vt 0.60000002384185791 0.5
vt 0.69999998807907104 0.5
vt 0.80000001192092896 0.5
vt 0.89999997615814209 0.5
vt 0 0.60000002384185791
vt 0.10000000149011612 0.60000002384185791
vt 0.20000000298023224 0.60000002384185791
vt 0.30000001192092896 0.60000002384185791
vt 0.40000000596046448 0.60000002384185791
vt 0.5 0.60000002384185791
vt 0.60000002384185791 0.60000002384185791
vt 0.69999998807907104 0.60000002384185791
vt 0.80000001192092896 0.60000002384185791
vt 0.89999997615814209 0.60000002384185791
vt 0 0.69999998807907104
vt 0.10000000149011612 0.69999998807907104
vt 0.20000000298023224 0.69999998807907104
vt 0.30000001192092896 0.69999998807907104
vt 0.40000000596046448 0.69999998807907104
vt 0.5 0.69999998807907104
vt 0.60000002384185791 0.69999998807907104
vt 0.69999998807907104 0.69999998807907104
vt 0.80000001192092896 0.69999998807907104
vt 0.89999997615814209 0.69999998807907104
vt 0 0.80000001192092896
vt 0.10000000149011612 0.80000001192092896
vt 0.20000000298023224 0.80000001192092896
vt 0.30000001192092896 0.80000001192092896
vt 0.40000000596046448 0.80000001192092896
vt 0.5 0.80000001192092896
vt 0.60000002384185791 0.80000001192092896
vt 0.69999998807907104 0.80000001192092896
vt 0.80000001192092896 0.80000001192092896
vt 0.89999997615814209 0.80000001192092896
vt 0 0.89999997615814209
vt 0.10000000149011612 0.89999997615814209
vt 0.20000000298023224 0.89999997615814209
vt 0.30000001192092896 0.89999997615814209
vt 0.40000000596046448 0.89999997615814209
vt 0.5 0.89999997615814209
vt 0.60000002384185791 0.89999997615814209
vt 0.69999998807907104 0.89999997615814209
vt 0.80000001192092896 0.89999997615814209
vt 0.89999997615814209 0.89999997615814209
vt 0 1
vn 0 0 -1
vn 0.30901700258255005 0 -0.95105654001235962
vn 0.25 0.18163563311100006 -0.95105654001235962
vn 0.095491506159305573 0.29389262199401855 -0.95105654001235962
vn -0.095491506159305573 0.29389262199401855 -0.95105654001235962
vn -0.25 0.18163563311100006 -0.95105654001235962
vn -0.30901700258255005 0 -0.95105654001235962
vn -0.25 -0.18163563311100006 -0.95105654001235962
vn -0.095491506159305573 -0.29389262199401855 -0.95105654001235962
vn 0.095491506159305573 -0.29389262199401855 -0.95105654001235962
vn 0.25 -0.18163563311100006 -0.95105654001235962
vn 0.58778524398803711 0 -0.80901700258255005
vn 0.47552827000617981 0.34549149870872498 -0.80901700258255005
vn 0.18163563311100006 0.55901700258255005 -0.80901700258255005
vn -0.18163563311100006 0.55901700258255005 -0.80901700258255005
vn -0.47552827000617981 0.34549149870872498 -0.80901700258255005
vn -0.58778524398803711 0 -0.80901700258255005
vn -0.47552827000617981 -0.34549149870872498 -0.80901700258255005
vn -0.18163563311100006 -0.55901700258255005 -0.80901700258255005
vn 0.18163563311100006 -0.55901700258255005 -0.80901700258255005
vn 0.47552827000617981 -0.34549149870872498 -0.80901700258255005
vn 0.80901700258255005 0 -0.58778524398803711
vn 0.65450847148895264 0.47552827000617981 -0.58778524398803711
vn 0.25 0.76942086219787598 -0.58778524398803711
vn -0.25 0.76942086219787598 -0.58778524398803711
vn -0.65450847148895264 0.47552827000617981 -0.58778524398803711
vn -0.80901700258255005 0 -0.58778524398803711
vn -0.65450847148895264 -0.47552827000617981 -0.58778524398803711
vn -0.25 -0.76942086219787598 -0.58778524398803711
vn 0.25 -0.76942086219787598 -0.58778524398803711
vn 0.65450847148895264 -0.47552827000617981 -0.58778524398803711
vn 0.95105654001235962 0 -0.30901700258255005
vn 0.76942086219787598 0.55901700258255005 -0.30901700258255005
vn 0.29389262199401855 0.90450847148895264 -0.30901700258255005
vn -0.29389262199401855 0.90450847148895264 -0.30901700258255005
vn -0.76942086219787598 0.55901700258255005 -0.30901700258255005
vn -0.95105654001235962 0 -0.30901700258255005
vn -0.76942086219787598 -0.55901700258255005 -0.30901700258255005
vn -0.29389262199401855 -0.90450847148895264 -0.30901700258255005
vn 0.29389262199401855 -0.90450847148895264 -0.30901700258255005
vn 0.76942086219787598 -0.55901700258255005 -0.30901700258255005
vn 1 0 0
vn 0.80901700258255005 0.58778524398803711 0
vn 0.30901700258255005 0.95105654001235962 0
vn -0.30901700258255005 0.95105654001235962 0
vn -0.80901700258255005 0.58778524398803711 0
vn -1 0 0
vn -0.80901700258255005 -0.58778524398803711 0
vn -0.30901700258255005 -0.95105654001235962 0
vn 0.30901700258255005 -0.95105654001235962 0
vn 0.80901700258255005 -0.58778524398803711 0
vn 0.95105654001235962 0 0.30901700258255005
vn 0.76942086219787598 0.55901700258255005 0.30901700258255005
vn 0.29389262199401855 0.90450847148895264 0.30901700258255005
vn -0.29389262199401855 0.90450847148895264 0.30901700258255005
vn -0.76942086219787598 0.55901700258255005 0.30901700258255005
vn -0.95105654001235962 0 0.30901700258255005
vn -0.76942086219787598 -0.55901700258255005 0.30901700258255005
vn -0.29389262199401855 -0.90450847148895264 0.30901700258255005
vn 0.29389262199401855 -0.90450847148895264 0.30901700258255005
vn 0.76942086219787598 -0.55901700258255005 0.30901700258255005
vn 0.80901700258255005 0 0.58778524398803711
vn 0.65450847148895264 0.47552827000617981 0.58778524398803711
vn 0.25 0.76942086219787598 0.58778524398803711
vn -0.25 0.76942086219787598 0.58778524398803711
vn -0.65450847148895264 0.47552827000617981 0.58778524398803711
vn -0.80901700258255005 0 0.58778524398803711
vn -0.65450847148895264 -0.47552827000617981 0.58778524398803711
vn -0.25 -0.76942086219787598 0.58778524398803711
vn 0.25 -0.76942086219787598 0.58778524398803711
vn 0.65450847148895264 -0.47552827000617981 0.58778524398803711
vn 0.58778524398803711 0 0.80901700258255005
vn 0.47552827000617981 0.34549149870872498 0.80901700258255005
vn 0.18163563311100006 0.55901700258255005 0.80901700258255005
vn -0.18163563311100006 0.55901700258255005 0.80901700258255005
vn -0.47552827000617981 0.34549149870872498 0.80901700258255005
vn -0.58778524398803711 0 0.80901700258255005
vn -0.47552827000617981 -0.34549149870872498 0.80901700258255005
vn -0.18163563311100006 -0.55901700258255005 0.80901700258255005
vn 0.18163563311100006 -0.55901700258255005 0.80901700258255005
vn 0.47552827000617981 -0.34549149870872498 0.80901700258255005
vn 0.30901700258255005 0 0.95105654001235962
vn 0.25 0.18163563311100006 0.95105654001235962
vn 0.095491506159305573 0.29389262199401855 0.95105654001235962
vn -0.095491506159305573 0.29389262199401855 0.95105654001235962
vn -0.25 0.18163563311100006 0.95105654001235962
vn -0.30901700258255005 0 0.95105654001235962
vn -0.25 -0.18163563311100006 0.95105654001235962
vn -0.095491506159305573 -0.29389262199401855 0.95105654001235962
vn 0.095491506159305573 -0.29389262199401855 0.95105654001235962
vn 0.25 -0.18163563311100006 0.95105654001235962
vn 0 0 1
f 1/1/1 3/3/3 2/2/2
f 1/1/1 4/4/4 3/3/3
f 1/1/1 5/5/5 4/4/4
f 1/1/1 6/6/6 5/5/5
f 1/1/1 7/7/7 6/6/6
f 1/1/1 8/8/8 7/7/7
f 1/1/1 9/9/9 8/8/8
f 1/1/1 10/10/10 9/9/9
f 1/1/1 11/11/11 10/10/10
f 1/1/1 2/2/2 11/11/11
f 2/2/2 3/3/3 13/13/13 12/12/12
f 3/3/3 4/4/4 14/14/14 13/13/13
f 4/4/4 5/5/5 15/15/15 14/14/14
f 5/5/5 6/6/6 16/16/16 15/15/15
f 6/6/6 7/7/7 17/17/17 16/16/16
f 7/7/7 8/8/8 18/18/18 17/17/17
f 8/8/8 9/9/9 19/19/19 18/18/18
f 9/9/9 10/10/10 20/20/20 19/19/19
f 10/10/10 11/11/11 21/21/21 20/20/20
f 11/11/11 2/2/2 12/12/12 21/21/21
f 12/12/12 13/13/13 23/23/23 22/22/22
f 13/13/13 14/14/14 24/24/24 23/23/23
f 14/14/14 15/15/15 25/25/25 24/24/24
f 15/15/15 16/16/16 26/26/26 25/25/25
f 16/16/16 17/17/17 27/27/27 26/26/26
f 17/17/17 18/18/18 28/28/28 27/27/27
f 18/18/18 19/19/19 29/29/29 28/28/28
f 19/19/19 20/20/20 30/30/30 29/29/29
f 20/20/20 21/21/21 31/31/31 30/30/30
f 21/21/21 12/12/12 22/22/22 31/31/31
f 22/22/22 23/23/23 33/33/33 32/32/32
f 23/23/23 24/24/24 34/34/34 33/33/33
f 24/24/24 25/25/25 35/35/35 34/34/34
f 25/25/25 26/26/26 36/36/36 35/35/35
f 26/26/26 27/27/27 37/37/37 36/36/36
f 27/27/27 28/28/28 38/38/38 37/37/37
f 28/28/28 29/29/29 39/39/39 38/38/38
f 29/29/29 30/30/30 40/40/40 39/39/39
f 30/30/30 31/31/31 41/41/41 40/40/40
f 31/31/31 22/22/22 32/32/32 41/41/41
f 32/32/32 33/33/33 43/43/43 42/42/42
f 33/33/33 34/34/34 44/44/44 43/43/43
f 34/34/34 35/35/35 45/45/45 44/44/44
f 35/35/35 36/36/36 46/46/46 45/45/45
f 36/36/36 37/37/37 47/47/47 46/46/46
f 37/37/37 38/38/38 48/48/48 47/47/47
f 38/38/38 39/39/39 49/49/49 48/48/48
f 39/39/39 40/40/40 50/50/50 49/49/49
f 40/40/40 41/41/41 51/51/51 50/50/50
f 41/41/41 32/32/32 42/42/42 51/51/51
f 42/42/42 43/43/43 53/53/53 52/52/52
f 43/43/43 44/44/44 54/54/54 53/53/53
f 44/44/44 45/45/45 55/55/55 54/54/54
f 45/45/45 46/46/46 56/56/56 55/55/55
f 46/46/46 47/47/47 57/57/57 56/56/56
f 47/47/47 48/48/48 58/58/58 57/57/57
f 48/48/48 49/49/49 59/59/59 58/58/58
f 49/49/49 50/50/50 60/60/60 59/59/59
f 50/50/50 51/51/51 61/61/61 60/60/60
f 51/51/51 42/42/42 52/52/52 61/61/61
f 52/52/52 53/53/53 63/63/63 62/62/62
f 53/53/53 54/54/54 64/64/64 63/63/63
f 54/54/54 55/55/55 65/65/65 64/64/64
f 55/55/55 56/56/56 66/66/66 65/65/65
f 56/56/56 57/57/57 67/67/67 66/66/66
f 57/57/57 58/58/58 68/68/68 67/67/67
f 58/58/58 59/59/59 69/69/69 68/68/68
f 59/59/59 60/60/60 70/70/70 69/69/69
f 60/60/60 61/61/61 71/71/71 70/70/70
f 61/61/61 52/52/52 62/62/62 71/71/71
f 62/62/62 63/63/63 73/73/73 72/72/72
f 63/63/63 64/64/64 74/74/74 73/73/73
f 64/64/64 65/65/65 75/75/75 74/74/74
f 65/65/65 66/66/66 76/76/76 75/75/75
f 66/66/66 67/67/67 77/77/77 76/76/76
f 67/67/67 68/68/68 78/78/78 77/77/77
f 68/68/68 69/69/69 79/79/79 78/78/78
f 69/69/69 70/70/70 80/80/80 79/79/79
f 70/70/70 71/71/71 81/81/81 80/80/80
f 71/71/71 62/62/62 72/72/72 81/81/81
f 72/72/72 73/73/73 83/83/83 82/82/82
f 73/73/73 74/74/74 84/84/84 83/83/83
f 74/74/74 75/75/75 85/85/85 84/84/84
f 75/75/75 76/76/76 86/86/86 85/85/85
f 76/76/76 77/77/77 87/87/87 86/86/86
f 77/77/77 78/78/78 88/88/88 87/87/87
f 78/78/78 79/79/79 89/89/89 88/88/88
f 79/79/79 80/80/80 90/90/90 89/89/89
f 80/80/80 81/81/81 91/91/91 90/90/90
f 81/81/81 72/72/72 82/82/82 91/91/91
f 82/82/82 83/83/83 92/92/92
f 83/83/83 84/84/84 92/92/92
f 84/84/84 85/85/85 92/92/92
f 85/85/85 86/86/86 92/92/92
f 86/86/86 87/87/87 92/92/92
f 87/87/87 88/88/88 92/92/92
f 88/88/88 89/89/89 92/92/92
f 89/89/89 90/90/90 92/92/92
f 90/90/90 91/91/91 92/92/92
f 91/91/91 82/82/82 92/92/92
