solid OBJECT
  facet normal 0.86696624201123207 0.44174136415726828 0.23072516638935933
    outer loop
      vertex 9.3934743239175269 3.0521248238988878 1.5643446504023104
      vertex 7.9905665268745771 5.8054864046304715 1.5643446504023104
      vertex 7.6942088429381341 5.5901699437494745 3.0901699437494736
    endloop
  endfacet
  facet normal 0.86696624201123207 0.44174136415726883 0.23072516638935844
    outer loop
      vertex 9.3934743239175269 3.0521248238988878 1.5643446504023104
      vertex 7.6942088429381341 5.5901699437494745 3.0901699437494736
      vertex 9.0450849718747381 2.9389262614623655 3.0901699437494736
    endloop
  endfacet
  facet normal 0.6880283052297349 0.6880283052297349 0.2307251663893593
    outer loop
      vertex 7.9905665268745771 5.8054864046304715 1.5643446504023104
      vertex 5.8054864046304715 7.9905665268745771 1.5643446504023104
      vertex 5.5901699437494745 7.6942088429381341 3.0901699437494736
    endloop
  endfacet
  facet normal 0.6880283052297349 0.6880283052297349 0.2307251663893593
    outer loop
      vertex 7.9905665268745771 5.8054864046304715 1.5643446504023104
      vertex 5.5901699437494745 7.6942088429381341 3.0901699437494736
      vertex 7.6942088429381341 5.5901699437494745 3.0901699437494736
    endloop
  endfacet
  facet normal 0.44174136415726845 0.86696624201123218 0.23072516638935844
    outer loop
      vertex 5.8054864046304715 7.9905665268745771 1.5643446504023104
      vertex 3.0521248238988883 9.3934743239175269 1.5643446504023104
      vertex 2.9389262614623659 9.0450849718747381 3.0901699437494736
    endloop
  endfacet
  facet normal 0.44174136415726878 0.86696624201123174 0.23072516638935928
    outer loop
      vertex 5.8054864046304715 7.9905665268745771 1.5643446504023104
      vertex 2.9389262614623659 9.0450849718747381 3.0901699437494736
      vertex 5.5901699437494745 7.6942088429381341 3.0901699437494736
    endloop
  endfacet
  facet normal 0.82466173021479128 0.42018613876854499 0.37865107883898591
    outer loop
      vertex 9.0450849718747381 2.9389262614623655 3.0901699437494736
      vertex 7.6942088429381341 5.5901699437494745 3.0901699437494736
      vertex 7.208394201673423 5.2372049461429935 4.5399049973954675
    endloop
  endfacet
  facet normal 0.82466173021479106 0.42018613876854433 0.37865107883898663
    outer loop
      vertex 9.0450849718747381 2.9389262614623655 3.0901699437494736
      vertex 7.208394201673423 5.2372049461429935 4.5399049973954675
      vertex 8.4739756089084253 2.7533615807315832 4.5399049973954675
    endloop
  endfacet
  facet normal 0.65445525457974274 0.65445525457974274 0.37865107883898597
    outer loop
      vertex 7.6942088429381341 5.5901699437494745 3.0901699437494736
      vertex 5.5901699437494745 7.6942088429381341 3.0901699437494736
      vertex 5.2372049461429935 7.208394201673423 4.5399049973954675
    endloop
  endfacet
  facet normal 0.65445525457974274 0.65445525457974274 0.37865107883898597
    outer loop
      vertex 7.6942088429381341 5.5901699437494745 3.0901699437494736
      vertex 5.2372049461429935 7.208394201673423 4.5399049973954675
      vertex 7.208394201673423 5.2372049461429935 4.5399049973954675
    endloop
  endfacet
  facet normal 0.42018613876854494 0.82466173021479106 0.37865107883898674
    outer loop
      vertex 5.5901699437494745 7.6942088429381341 3.0901699437494736
      vertex 2.9389262614623659 9.0450849718747381 3.0901699437494736
      vertex 2.7533615807315837 8.4739756089084253 4.5399049973954675
    endloop
  endfacet
  facet normal 0.42018613876854455 0.82466173021479139 0.37865107883898591
    outer loop
      vertex 5.5901699437494745 7.6942088429381341 3.0901699437494736
      vertex 2.7533615807315837 8.4739756089084253 4.5399049973954675
      vertex 5.2372049461429935 7.208394201673423 4.5399049973954675
    endloop
  endfacet
  facet normal 0.76225850345648283 0.38839010660461459 0.51779831884618854
    outer loop
      vertex 8.4739756089084253 2.7533615807315832 4.5399049973954675
      vertex 7.208394201673423 5.2372049461429935 4.5399049973954675
      vertex 6.5450849718747373 4.7552825814757682 5.87785252292473
    endloop
  endfacet
  facet normal 0.76225850345648294 0.38839010660461493 0.51779831884618832
    outer loop
      vertex 8.4739756089084253 2.7533615807315832 4.5399049973954675
      vertex 6.5450849718747373 4.7552825814757682 5.87785252292473
      vertex 7.6942088429381332 2.5 5.87785252292473
    endloop
  endfacet
  facet normal 0.60493177342575633 0.60493177342575633 0.51779831884618854
    outer loop
      vertex 7.208394201673423 5.2372049461429935 4.5399049973954675
      vertex 5.2372049461429935 7.208394201673423 4.5399049973954675
      vertex 4.7552825814757682 6.5450849718747373 5.87785252292473
    endloop
  endfacet
  facet normal 0.60493177342575621 0.60493177342575621 0.51779831884618854
    outer loop
      vertex 7.208394201673423 5.2372049461429935 4.5399049973954675
      vertex 4.7552825814757682 6.5450849718747373 5.87785252292473
      vertex 6.5450849718747373 4.7552825814757682 5.87785252292473
    endloop
  endfacet
  facet normal 0.38839010660461476 0.76225850345648294 0.51779831884618821
    outer loop
      vertex 5.2372049461429935 7.208394201673423 4.5399049973954675
      vertex 2.7533615807315837 8.4739756089084253 4.5399049973954675
      vertex 2.5000000000000004 7.6942088429381332 5.87785252292473
    endloop
  endfacet
  facet normal 0.38839010660461482 0.76225850345648261 0.51779831884618854
    outer loop
      vertex 5.2372049461429935 7.208394201673423 4.5399049973954675
      vertex 2.5000000000000004 7.6942088429381332 5.87785252292473
      vertex 4.7552825814757682 6.5450849718747373 5.87785252292473
    endloop
  endfacet
  facet normal 0.68105061342573592 0.3470126199342044 0.64478857275763524
    outer loop
      vertex 7.6942088429381332 2.5 5.87785252292473
      vertex 6.5450849718747373 4.7552825814757682 5.87785252292473
      vertex 5.7206140281768461 4.156269377774537 7.0710678118654711
    endloop
  endfacet
  facet normal 0.68105061342573592 0.34701261993420446 0.64478857275763513
    outer loop
      vertex 7.6942088429381332 2.5 5.87785252292473
      vertex 5.7206140281768461 4.156269377774537 7.0710678118654711
      vertex 6.7249851196395767 2.1850801222441065 7.0710678118654711
    endloop
  endfacet
  facet normal 0.54048482700311384 0.54048482700311384 0.64478857275763524
    outer loop
      vertex 6.5450849718747373 4.7552825814757682 5.87785252292473
      vertex 4.7552825814757682 6.5450849718747373 5.87785252292473
      vertex 4.156269377774537 5.7206140281768461 7.0710678118654711
    endloop
  endfacet
  facet normal 0.54048482700311384 0.54048482700311384 0.64478857275763513
    outer loop
      vertex 6.5450849718747373 4.7552825814757682 5.87785252292473
      vertex 4.156269377774537 5.7206140281768461 7.0710678118654711
      vertex 5.7206140281768461 4.156269377774537 7.0710678118654711
    endloop
  endfacet
  facet normal 0.3470126199342044 0.68105061342573581 0.64478857275763513
    outer loop
      vertex 4.7552825814757682 6.5450849718747373 5.87785252292473
      vertex 2.5000000000000004 7.6942088429381332 5.87785252292473
      vertex 2.1850801222441065 6.7249851196395767 7.0710678118654711
    endloop
  endfacet
  facet normal 0.3470126199342044 0.68105061342573592 0.64478857275763524
    outer loop
      vertex 4.7552825814757682 6.5450849718747373 5.87785252292473
      vertex 2.1850801222441065 6.7249851196395767 7.0710678118654711
      vertex 4.156269377774537 5.7206140281768461 7.0710678118654711
    endloop
  endfacet
  facet normal 0.5828004466496578 0.29695165954472064 0.75641480107054748
    outer loop
      vertex 6.7249851196395767 2.1850801222441065 7.0710678118654711
      vertex 5.7206140281768461 4.156269377774537 7.0710678118654711
      vertex 4.7552825814757691 3.4549150281252636 8.0901699437494727
    endloop
  endfacet
  facet normal 0.58280044664965769 0.29695165954472064 0.75641480107054737
    outer loop
      vertex 6.7249851196395767 2.1850801222441065 7.0710678118654711
      vertex 4.7552825814757691 3.4549150281252636 8.0901699437494727
      vertex 5.5901699437494754 1.8163563200134025 8.0901699437494727
    endloop
  endfacet
  facet normal 0.4625130531787206 0.4625130531787206 0.75641480107054748
    outer loop
      vertex 5.7206140281768461 4.156269377774537 7.0710678118654711
      vertex 4.156269377774537 5.7206140281768461 7.0710678118654711
      vertex 3.4549150281252636 4.7552825814757691 8.0901699437494727
    endloop
  endfacet
  facet normal 0.46251305317872066 0.46251305317872066 0.75641480107054748
    outer loop
      vertex 5.7206140281768461 4.156269377774537 7.0710678118654711
      vertex 3.4549150281252636 4.7552825814757691 8.0901699437494727
      vertex 4.7552825814757691 3.4549150281252636 8.0901699437494727
    endloop
  endfacet
  facet normal 0.29695165954472069 0.58280044664965791 0.75641480107054748
    outer loop
      vertex 4.156269377774537 5.7206140281768461 7.0710678118654711
      vertex 2.1850801222441065 6.7249851196395767 7.0710678118654711
      vertex 1.8163563200134027 5.5901699437494754 8.0901699437494727
    endloop
  endfacet
  facet normal 0.29695165954472069 0.58280044664965769 0.75641480107054748
    outer loop
      vertex 4.156269377774537 5.7206140281768461 7.0710678118654711
      vertex 1.8163563200134027 5.5901699437494754 8.0901699437494727
      vertex 3.4549150281252636 4.7552825814757691 8.0901699437494727
    endloop
  endfacet
  facet normal 0.46974697910416324 0.23934804067669874 0.84973542414491476
    outer loop
      vertex 5.5901699437494754 1.8163563200134025 8.0901699437494727
      vertex 4.7552825814757691 3.4549150281252636 8.0901699437494727
      vertex 3.6728602957406853 2.6684892042779551 8.9100652418836788
    endloop
  endfacet
  facet normal 0.46974697910416308 0.23934804067669851 0.84973542414491465
    outer loop
      vertex 5.5901699437494754 1.8163563200134025 8.0901699437494727
      vertex 3.6728602957406853 2.6684892042779551 8.9100652418836788
      vertex 4.3177062311338918 1.4029077970429511 8.9100652418836788
    endloop
  endfacet
  facet normal 0.37279331334753163 0.37279331334753163 0.84973542414491476
    outer loop
      vertex 4.7552825814757691 3.4549150281252636 8.0901699437494727
      vertex 3.4549150281252636 4.7552825814757691 8.0901699437494727
      vertex 2.6684892042779551 3.6728602957406853 8.9100652418836788
    endloop
  endfacet
  facet normal 0.37279331334753163 0.37279331334753163 0.84973542414491476
    outer loop
      vertex 4.7552825814757691 3.4549150281252636 8.0901699437494727
      vertex 2.6684892042779551 3.6728602957406853 8.9100652418836788
      vertex 3.6728602957406853 2.6684892042779551 8.9100652418836788
    endloop
  endfacet
  facet normal 0.23934804067669871 0.46974697910416302 0.84973542414491476
    outer loop
      vertex 3.4549150281252636 4.7552825814757691 8.0901699437494727
      vertex 1.8163563200134027 5.5901699437494754 8.0901699437494727
      vertex 1.4029077970429513 4.3177062311338918 8.9100652418836788
    endloop
  endfacet
  facet normal 0.23934804067669868 0.46974697910416324 0.84973542414491476
    outer loop
      vertex 3.4549150281252636 4.7552825814757691 8.0901699437494727
      vertex 1.4029077970429513 4.3177062311338918 8.9100652418836788
      vertex 2.6684892042779551 3.6728602957406853 8.9100652418836788
    endloop
  endfacet
  facet normal 0.34459132841231382 0.1755780515011664 0.92218716333187511
    outer loop
      vertex 4.3177062311338918 1.4029077970429511 8.9100652418836788
      vertex 3.6728602957406853 2.6684892042779551 8.9100652418836788
      vertex 2.5000000000000004 1.8163563200134027 9.5105651629515346
    endloop
  endfacet
  facet normal 0.34459132841231388 0.17557805150116657 0.92218716333187511
    outer loop
      vertex 4.3177062311338918 1.4029077970429511 8.9100652418836788
      vertex 2.5000000000000004 1.8163563200134027 9.5105651629515346
      vertex 2.9389262614623664 0.95491502812526297 9.5105651629515346
    endloop
  endfacet
  facet normal 0.2734692265922341 0.2734692265922341 0.92218716333187511
    outer loop
      vertex 3.6728602957406853 2.6684892042779551 8.9100652418836788
      vertex 2.6684892042779551 3.6728602957406853 8.9100652418836788
      vertex 1.8163563200134027 2.5000000000000004 9.5105651629515346
    endloop
  endfacet
  facet normal 0.2734692265922341 0.2734692265922341 0.92218716333187511
    outer loop
      vertex 3.6728602957406853 2.6684892042779551 8.9100652418836788
      vertex 1.8163563200134027 2.5000000000000004 9.5105651629515346
      vertex 2.5000000000000004 1.8163563200134027 9.5105651629515346
    endloop
  endfacet
  facet normal 0.17557805150116643 0.34459132841231394 0.92218716333187511
    outer loop
      vertex 2.6684892042779551 3.6728602957406853 8.9100652418836788
      vertex 1.4029077970429513 4.3177062311338918 8.9100652418836788
      vertex 0.95491502812526319 2.9389262614623664 9.5105651629515346
    endloop
  endfacet
  facet normal 0.17557805150116654 0.34459132841231377 0.92218716333187511
    outer loop
      vertex 2.6684892042779551 3.6728602957406853 8.9100652418836788
      vertex 0.95491502812526319 2.9389262614623664 9.5105651629515346
      vertex 1.8163563200134027 2.5000000000000004 9.5105651629515346
    endloop
  endfacet
  facet normal 0.21045030253137048 0.1072297849935351 0.97170594491064799
    outer loop
      vertex 2.9389262614623664 0.95491502812526297 9.5105651629515346
      vertex 2.5000000000000004 1.8163563200134027 9.5105651629515346
      vertex 1.2655814072350045 0.9194987150091023 9.8768834059513768
    endloop
  endfacet
  facet normal 0.21045030253137051 0.10722978499353503 0.97170594491064799
    outer loop
      vertex 2.9389262614623664 0.95491502812526297 9.5105651629515346
      vertex 1.2655814072350045 0.9194987150091023 9.8768834059513768
      vertex 1.4877801734965805 0.48340908203384958 9.8768834059513768
    endloop
  endfacet
  facet normal 0.16701430571257228 0.16701430571257231 0.97170594491064799
    outer loop
      vertex 2.5000000000000004 1.8163563200134027 9.5105651629515346
      vertex 1.8163563200134027 2.5000000000000004 9.5105651629515346
      vertex 0.9194987150091023 1.2655814072350045 9.8768834059513768
    endloop
  endfacet
  facet normal 0.16701430571257228 0.16701430571257231 0.97170594491064788
    outer loop
      vertex 2.5000000000000004 1.8163563200134027 9.5105651629515346
      vertex 0.9194987150091023 1.2655814072350045 9.8768834059513768
      vertex 1.2655814072350045 0.9194987150091023 9.8768834059513768
    endloop
  endfacet
  facet normal 0.10722978499353508 0.21045030253137045 0.97170594491064799
    outer loop
      vertex 1.8163563200134027 2.5000000000000004 9.5105651629515346
      vertex 0.95491502812526319 2.9389262614623664 9.5105651629515346
      vertex 0.48340908203384969 1.4877801734965805 9.8768834059513768
    endloop
  endfacet
  facet normal 0.10722978499353507 0.21045030253137051 0.97170594491064799
    outer loop
      vertex 1.8163563200134027 2.5000000000000004 9.5105651629515346
      vertex 0.48340908203384969 1.4877801734965805 9.8768834059513768
      vertex 0.9194987150091023 1.2655814072350045 9.8768834059513768
    endloop
  endfacet
  facet normal 0.98471780071177906 0.15596397774334333 0.077498971656602203
    outer loop
      vertex 9.3934743239175269 3.0521248238988878 1.5643446504023104
      vertex 10 0 0
      vertex 9.5587979712191764 2.7856399774926279 0
    endloop
  endfacet
  facet normal 0.98471780071177839 0.15596397774334736 0.077498971656601454
    outer loop
      vertex 9.5587979712191764 2.7856399774926279 0
      vertex 9.5105651629515346 3.0901699437494741 0
      vertex 9.3934743239175269 3.0521248238988878 1.5643446504023104
    endloop
  endfacet
  facet normal 0.98471780071177906 0.15596397774334361 0.07749897165660169
    outer loop
      vertex 9.8768834059513768 0 1.5643446504023104
      vertex 10 0 0
      vertex 9.3934743239175269 3.0521248238988878 1.5643446504023104
    endloop
  endfacet
  facet normal 0.88832676144576084 0.45262509242358101 0.077498971656601606
    outer loop
      vertex 7.9905665268745771 5.8054864046304715 1.5643446504023104
      vertex 9.5105651629515346 3.0901699437494741 0
      vertex 8.0901699437494745 5.8778525229247318 0
    endloop
  endfacet
  facet normal 0.88832676144576095 0.45262509242358107 0.077498971656601481
    outer loop
      vertex 9.3934743239175269 3.0521248238988878 1.5643446504023104
      vertex 9.5105651629515346 3.0901699437494741 0
      vertex 7.9905665268745771 5.8054864046304715 1.5643446504023104
    endloop
  endfacet
  facet normal 0.7049801094329432 0.7049801094329432 0.077498971656601717
    outer loop
      vertex 5.8054864046304715 7.9905665268745771 1.5643446504023104
      vertex 8.0901699437494745 5.8778525229247318 0
      vertex 5.8778525229247318 8.0901699437494745 0
    endloop
  endfacet
  facet normal 0.7049801094329432 0.7049801094329432 0.077498971656601717
    outer loop
      vertex 7.9905665268745771 5.8054864046304715 1.5643446504023104
      vertex 8.0901699437494745 5.8778525229247318 0
      vertex 5.8054864046304715 7.9905665268745771 1.5643446504023104
    endloop
  endfacet
  facet normal 0.45262509242358101 0.88832676144576084 0.07749897165660162
    outer loop
      vertex 5.8054864046304715 7.9905665268745771 1.5643446504023104
      vertex 5.8778525229247318 8.0901699437494745 0
      vertex 3.0901699437494745 9.5105651629515346 0
    endloop
  endfacet
  facet normal 0.45262509242358118 0.88832676144576095 0.077498971656601495
    outer loop
      vertex 5.8054864046304715 7.9905665268745771 1.5643446504023104
      vertex 3.0901699437494745 9.5105651629515346 0
      vertex 3.0521248238988883 9.3934743239175269 1.5643446504023104
    endloop
  endfacet
  facet normal 0.15596397774334375 0.98471780071177906 0.077498971656601412
    outer loop
      vertex 3.0521248238988883 9.3934743239175269 1.5643446504023104
      vertex 3.0901699437494745 9.5105651629515346 0
      vertex 6.1232339957367663e-16 10 0
    endloop
  endfacet
  facet normal 0.15596397774334361 0.98471780071177906 0.07749897165660169
    outer loop
      vertex 3.0521248238988883 9.3934743239175269 1.5643446504023104
      vertex 6.1232339957367663e-16 10 0
      vertex 6.0478468243249804e-16 9.8768834059513768 1.5643446504023104
    endloop
  endfacet
  facet normal 0.96103948251567162 0.15221370056802686 0.23072516638935842
    outer loop
      vertex 9.0450849718747381 2.9389262614623655 3.0901699437494736
      vertex 9.8768834059513768 0 1.5643446504023104
      vertex 9.3934743239175269 3.0521248238988878 1.5643446504023104
    endloop
  endfacet
  facet normal 0.96103948251567151 0.15221370056802652 0.23072516638935894
    outer loop
      vertex 9.5105651629515364 0 3.0901699437494736
      vertex 9.8768834059513768 0 1.5643446504023104
      vertex 9.0450849718747381 2.9389262614623655 3.0901699437494736
    endloop
  endfacet
  facet normal 0.1522137005680258 0.96103948251567217 0.23072516638935681
    outer loop
      vertex 0 9.6747645611320365 2.4062302282592443
      vertex 5.823541592445462e-16 9.5105651629515364 3.0901699437494736
      vertex 3.0521248238988883 9.3934743239175269 1.5643446504023104
    endloop
  endfacet
  facet normal 0.15221370056802674 0.96103948251567106 0.23072516638936064
    outer loop
      vertex 3.0521248238988883 9.3934743239175269 1.5643446504023104
      vertex 6.0478468243249804e-16 9.8768834059513768 1.5643446504023104
      vertex 0 9.6747645611320365 2.4062302282592443
    endloop
  endfacet
  facet normal 0.15221370056802658 0.96103948251567195 0.23072516638935842
    outer loop
      vertex 2.9389262614623659 9.0450849718747381 3.0901699437494736
      vertex 3.0521248238988883 9.3934743239175269 1.5643446504023104
      vertex 5.823541592445462e-16 9.5105651629515364 3.0901699437494736
    endloop
  endfacet
  facet normal 0.91414456994028359 0.14478627608570566 0.37865107883898608
    outer loop
      vertex 8.9100652418836788 0 4.5399049973954675
      vertex 9.5105651629515364 0 3.0901699437494736
      vertex 9.0450849718747381 2.9389262614623655 3.0901699437494736
    endloop
  endfacet
  facet normal 0.91414456994028315 0.14478627608570604 0.37865107883898685
    outer loop
      vertex 8.9100652418836788 0 4.5399049973954675
      vertex 9.0450849718747381 2.9389262614623655 3.0901699437494736
      vertex 8.4739756089084253 2.7533615807315832 4.5399049973954675
    endloop
  endfacet
  facet normal 0.14478627608570566 0.91414456994028359 0.37865107883898608
    outer loop
      vertex 5.4558414393334668e-16 8.9100652418836788 4.5399049973954675
      vertex 2.9389262614623659 9.0450849718747381 3.0901699437494736
      vertex 5.823541592445462e-16 9.5105651629515364 3.0901699437494736
    endloop
  endfacet
  facet normal 0.14478627608570604 0.91414456994028315 0.37865107883898685
    outer loop
      vertex 2.7533615807315837 8.4739756089084253 4.5399049973954675
      vertex 2.9389262614623659 9.0450849718747381 3.0901699437494736
      vertex 5.4558414393334668e-16 8.9100652418836788 4.5399049973954675
    endloop
  endfacet
  facet normal 0.84497006020160437 0.13383011007602122 0.51779831884618643
    outer loop
      vertex 8.4739756089084253 2.7533615807315832 4.5399049973954675
      vertex 8.3823019357688331 0 5.4011364388836505
      vertex 8.9100652418836788 0 4.5399049973954675
    endloop
  endfacet
  facet normal 0.84497006020160081 0.13383011007602311 0.51779831884619199
    outer loop
      vertex 8.3823019357688331 0 5.4011364388836505
      vertex 8.4739756089084253 2.7533615807315832 4.5399049973954675
      vertex 8.0901699437494745 0 5.87785252292473
    endloop
  endfacet
  facet normal 0.84497006020160337 0.13383011007602089 0.51779831884618821
    outer loop
      vertex 8.0901699437494745 0 5.87785252292473
      vertex 8.4739756089084253 2.7533615807315832 4.5399049973954675
      vertex 7.6942088429381332 2.5 5.87785252292473
    endloop
  endfacet
  facet normal 0.133830110076021 0.84497006020160315 0.51779831884618843
    outer loop
      vertex 4.9538003630854587e-16 8.0901699437494745 5.87785252292473
      vertex 2.7533615807315837 8.4739756089084253 4.5399049973954675
      vertex 5.4558414393334668e-16 8.9100652418836788 4.5399049973954675
    endloop
  endfacet
  facet normal 0.13383011007602089 0.84497006020160337 0.51779831884618821
    outer loop
      vertex 2.5000000000000004 7.6942088429381332 5.87785252292473
      vertex 2.7533615807315837 8.4739756089084253 4.5399049973954675
      vertex 4.9538003630854587e-16 8.0901699437494745 5.87785252292473
    endloop
  endfacet
  facet normal 0.75495042064760143 0.11957239984704378 0.64478857275763524
    outer loop
      vertex 7.0710678118654791 0 7.0710678118654711
      vertex 8.0901699437494745 0 5.87785252292473
      vertex 7.6942088429381332 2.5 5.87785252292473
    endloop
  endfacet
  facet normal 0.75495042064760165 0.11957239984704369 0.64478857275763524
    outer loop
      vertex 7.0710678118654791 0 7.0710678118654711
      vertex 7.6942088429381332 2.5 5.87785252292473
      vertex 6.7249851196395767 2.1850801222441065 7.0710678118654711
    endloop
  endfacet
  facet normal 0.11957239984704378 0.75495042064760143 0.64478857275763524
    outer loop
      vertex 4.3297802811774686e-16 7.0710678118654791 7.0710678118654711
      vertex 2.5000000000000004 7.6942088429381332 5.87785252292473
      vertex 4.9538003630854587e-16 8.0901699437494745 5.87785252292473
    endloop
  endfacet
  facet normal 0.11957239984704369 0.75495042064760154 0.64478857275763513
    outer loop
      vertex 2.1850801222441065 6.7249851196395767 7.0710678118654711
      vertex 2.5000000000000004 7.6942088429381332 5.87785252292473
      vertex 4.3297802811774686e-16 7.0710678118654791 7.0710678118654711
    endloop
  endfacet
  facet normal 0.64603927179304521 0.10232256849061251 0.75641480107054726
    outer loop
      vertex 5.5901699437494754 1.8163563200134025 8.0901699437494727
      vertex 7.0710678118654791 0 7.0710678118654711
      vertex 6.7249851196395767 2.1850801222441065 7.0710678118654711
    endloop
  endfacet
  facet normal 0.64603927179304521 0.10232256849061251 0.75641480107054726
    outer loop
      vertex 5.8778525229247327 0 8.0901699437494727
      vertex 7.0710678118654791 0 7.0710678118654711
      vertex 5.5901699437494754 1.8163563200134025 8.0901699437494727
    endloop
  endfacet
  facet normal 0.10232256849061255 0.64603927179304521 0.75641480107054748
    outer loop
      vertex 3.599146639029984e-16 5.8778525229247327 8.0901699437494727
      vertex 2.1850801222441065 6.7249851196395767 7.0710678118654711
      vertex 4.3297802811774686e-16 7.0710678118654791 7.0710678118654711
    endloop
  endfacet
  facet normal 0.10232256849061248 0.64603927179304521 0.75641480107054726
    outer loop
      vertex 1.8163563200134027 5.5901699437494754 8.0901699437494727
      vertex 2.1850801222441065 6.7249851196395767 7.0710678118654711
      vertex 3.599146639029984e-16 5.8778525229247327 8.0901699437494727
    endloop
  endfacet
  facet normal 0.52071853762642384 0.0824737141485722 0.84973542414491476
    outer loop
      vertex 4.5399049973954684 0 8.9100652418836788
      vertex 5.8778525229247327 0 8.0901699437494727
      vertex 5.5901699437494754 1.8163563200134025 8.0901699437494727
    endloop
  endfacet
  facet normal 0.52071853762642362 0.082473714148572269 0.84973542414491465
    outer loop
      vertex 4.5399049973954684 0 8.9100652418836788
      vertex 5.5901699437494754 1.8163563200134025 8.0901699437494727
      vertex 4.3177062311338918 1.4029077970429511 8.9100652418836788
    endloop
  endfacet
  facet normal 0.082473714148572214 0.52071853762642384 0.84973542414491476
    outer loop
      vertex 2.7798900617467166e-16 4.5399049973954684 8.9100652418836788
      vertex 1.8163563200134027 5.5901699437494754 8.0901699437494727
      vertex 3.599146639029984e-16 5.8778525229247327 8.0901699437494727
    endloop
  endfacet
  facet normal 0.082473714148572269 0.52071853762642362 0.84973542414491465
    outer loop
      vertex 1.4029077970429513 4.3177062311338918 8.9100652418836788
      vertex 1.8163563200134027 5.5901699437494754 8.0901699437494727
      vertex 2.7798900617467166e-16 4.5399049973954684 8.9100652418836788
    endloop
  endfacet
  facet normal 0.38198243009843452 0.060500073404947022 0.92218716333187511
    outer loop
      vertex 3.090169943749475 0 9.5105651629515346
      vertex 4.5399049973954684 0 8.9100652418836788
      vertex 4.3177062311338918 1.4029077970429511 8.9100652418836788
    endloop
  endfacet
  facet normal 0.38198243009843469 0.060500073404946848 0.92218716333187511
    outer loop
      vertex 3.090169943749475 0 9.5105651629515346
      vertex 4.3177062311338918 1.4029077970429511 8.9100652418836788
      vertex 2.9389262614623664 0.95491502812526297 9.5105651629515346
    endloop
  endfacet
  facet normal 0.060500073404947022 0.38198243009843452 0.92218716333187511
    outer loop
      vertex 1.8921833652170756e-16 3.090169943749475 9.5105651629515346
      vertex 1.4029077970429513 4.3177062311338918 8.9100652418836788
      vertex 2.7798900617467166e-16 4.5399049973954684 8.9100652418836788
    endloop
  endfacet
  facet normal 0.060500073404946848 0.38198243009843469 0.92218716333187511
    outer loop
      vertex 0.95491502812526319 2.9389262614623664 9.5105651629515346
      vertex 1.4029077970429513 4.3177062311338918 8.9100652418836788
      vertex 1.8921833652170756e-16 3.090169943749475 9.5105651629515346
    endloop
  endfacet
  facet normal 0.23328595744492037 0.03694886580548732 0.97170594491064777
    outer loop
      vertex 1.5643446504023097 0 9.8768834059513768
      vertex 3.090169943749475 0 9.5105651629515346
      vertex 2.9389262614623664 0.95491502812526297 9.5105651629515346
    endloop
  endfacet
  facet normal 0.23328595744492034 0.036948865805487362 0.97170594491064766
    outer loop
      vertex 1.5643446504023097 0 9.8768834059513768
      vertex 2.9389262614623664 0.95491502812526297 9.5105651629515346
      vertex 1.4877801734965805 0.48340908203384958 9.8768834059513768
    endloop
  endfacet
  facet normal 0.03694886580548732 0.23328595744492037 0.97170594491064777
    outer loop
      vertex 9.5788483443923696e-17 1.5643446504023097 9.8768834059513768
      vertex 0.95491502812526319 2.9389262614623664 9.5105651629515346
      vertex 1.8921833652170756e-16 3.090169943749475 9.5105651629515346
    endloop
  endfacet
  facet normal 0.036948865805487348 0.23328595744492037 0.97170594491064777
    outer loop
      vertex 0.48340908203384969 1.4877801734965805 9.8768834059513768
      vertex 0.95491502812526319 2.9389262614623664 9.5105651629515346
      vertex 9.5788483443923696e-17 1.5643446504023097 9.8768834059513768
    endloop
  endfacet
  facet normal 0.078453038489918775 0.0124257405929851 0.99684036922789943
    outer loop
      vertex 0 0 10
      vertex 1.5643446504023097 0 9.8768834059513768
      vertex 1.4877801734965805 0.48340908203384958 9.8768834059513768
    endloop
  endfacet
  facet normal 0.070773508468064739 0.036060903714488432 0.99684036922789954
    outer loop
      vertex 0 0 10
      vertex 1.4877801734965805 0.48340908203384958 9.8768834059513768
      vertex 1.2655814072350045 0.9194987150091023 9.8768834059513768
    endloop
  endfacet
  facet normal 0.056166174329327599 0.056166174329327599 0.99684036922789954
    outer loop
      vertex 0 0 10
      vertex 1.2655814072350045 0.9194987150091023 9.8768834059513768
      vertex 0.9194987150091023 1.2655814072350045 9.8768834059513768
    endloop
  endfacet
  facet normal 0.036060903714488453 0.070773508468064725 0.99684036922789954
    outer loop
      vertex 0 0 10
      vertex 0.9194987150091023 1.2655814072350045 9.8768834059513768
      vertex 0.48340908203384969 1.4877801734965805 9.8768834059513768
    endloop
  endfacet
  facet normal 0.0124257405929851 0.078453038489918775 0.99684036922789943
    outer loop
      vertex 0 0 10
      vertex 0.48340908203384969 1.4877801734965805 9.8768834059513768
      vertex 9.5788483443923696e-17 1.5643446504023097 9.8768834059513768
    endloop
  endfacet
endsolid OBJECT
